<svg id="Capa_1" enable-background="new 0 0 512 512" height="512" viewBox="0 0 512 512" width="512" xmlns="http://www.w3.org/2000/svg"><g><path d="m426 221.666c-5.523 0-10 4.478-10 10v230.334c0 16.542-13.458 30-30 30h-260c-16.542 0-30-13.458-30-30v-412c0-16.542 13.458-30 30-30h260c16.542 0 30 13.458 30 30v101.666c0 5.523 4.477 10 10 10s10-4.477 10-10v-101.666c0-27.57-22.43-50-50-50h-260c-27.57 0-50 22.43-50 50v412c0 27.57 22.43 50 50 50h260c27.57 0 50-22.43 50-50v-230.334c0-5.522-4.477-10-10-10z"/><path d="m396 60c0-11.028-8.972-20-20-20h-240c-11.028 0-20 8.972-20 20v91.667c0 11.028 8.972 20 20 20h240c11.028 0 20-8.972 20-20zm-20 91.667-240 .013s-.001-.004-.001-.013v-91.667h240v91.667z"/><path d="m256 291.667c-22.056 0-40 17.944-40 40s17.944 40 40 40 40-17.944 40-40-17.944-40-40-40zm0 60c-11.028 0-20-8.972-20-20s8.972-20 20-20 20 8.972 20 20-8.972 20-20 20z"/><path d="m156 291.667c-22.056 0-40 17.944-40 40s17.944 40 40 40 40-17.944 40-40-17.944-40-40-40zm0 60c-11.028 0-20-8.972-20-20s8.972-20 20-20 20 8.972 20 20-8.972 20-20 20z"/><path d="m256 191.667c-22.056 0-40 17.944-40 40s17.944 40 40 40 40-17.944 40-40-17.944-40-40-40zm0 60c-11.028 0-20-8.972-20-20s8.972-20 20-20 20 8.972 20 20-8.972 20-20 20z"/><path d="m356 191.667c-22.056 0-40 17.944-40 40s17.944 40 40 40 40-17.944 40-40-17.944-40-40-40zm0 60c-11.028 0-20-8.972-20-20s8.972-20 20-20 20 8.972 20 20-8.972 20-20 20z"/><path d="m156 191.667c-22.056 0-40 17.944-40 40s17.944 40 40 40 40-17.944 40-40-17.944-40-40-40zm0 60c-11.028 0-20-8.972-20-20s8.972-20 20-20 20 8.972 20 20-8.972 20-20 20z"/><path d="m256 391.667c-22.056 0-40 17.944-40 40s17.944 40 40 40 40-17.944 40-40-17.944-40-40-40zm0 60c-11.028 0-20-8.972-20-20s8.972-20 20-20 20 8.972 20 20-8.972 20-20 20z"/><path d="m156 391.667c-22.056 0-40 17.944-40 40s17.944 40 40 40 40-17.944 40-40-17.944-40-40-40zm0 60c-11.028 0-20-8.972-20-20s8.972-20 20-20 20 8.972 20 20-8.972 20-20 20z"/><circle cx="256" cy="105.834" r="10"/><circle cx="321" cy="105.834" r="10"/><circle cx="191" cy="105.834" r="10"/><path d="m356 291.667c-22.056 0-40 17.944-40 40v100c0 22.056 17.944 40 40 40s40-17.944 40-40v-100c0-22.056-17.944-40-40-40zm20 140c0 11.028-8.972 20-20 20s-20-8.972-20-20v-100c0-11.028 8.972-20 20-20s20 8.972 20 20z"/><circle cx="426" cy="191.667" r="10"/></g></svg>