<svg id="_x31_px" enable-background="new 0 0 24 24" height="512" viewBox="0 0 24 24" width="512" xmlns="http://www.w3.org/2000/svg"><path d="m17 23.143h-8.357c-.257 0-.464-.208-.464-.464v-3.088l-2.242.681c-.151.054-.341.085-.544.085-1.024 0-1.857-.833-1.857-1.857v-2.786h-1.857c-.521 0-.929-.408-.929-.929 0-.175.049-.342.144-.496l2.171-3.445c.308-.488.471-1.051.471-1.628 0-4.611 3.749-8.36 8.357-8.36s8.357 3.749 8.357 8.357c0 1.726-.525 3.386-1.519 4.801-.829 1.178-1.267 2.56-1.267 3.997v4.667c0 .257-.207.465-.464.465z" fill="#eceff1"/><path d="m17 9.44c-1.108 0-2.216-.355-3.387-1.066-.417-.253-.676-.719-.676-1.215v-1.987c0-.336.273-.609.609-.609h6.906c.336 0 .609.273.609.609v1.988c0 .496-.259.962-.676 1.215-1.169.71-2.277 1.065-3.385 1.065z" fill="#90a4ae"/><path d="m17 6.163c-.078 0-.157-.016-.23-.048l-4.755-2.092c-.207-.091-.341-.296-.341-.522s.134-.431.341-.522l4.755-2.092c.146-.064.314-.064.46 0l4.755 2.092c.207.091.341.296.341.522s-.134.431-.341.522l-4.755 2.092c-.073.031-.152.048-.23.048z" fill="#2196f3"/><path d="m17.374 24h-8.801c-.414 0-.75-.336-.75-.75v-2.898l-2.024.615c-.174.063-.404.101-.648.101-1.222 0-2.217-.994-2.217-2.216v-2.672h-1.695c-.683 0-1.239-.556-1.239-1.239 0-.232.066-.461.192-.662l2.29-3.629c.296-.467.452-1.011.452-1.574 0-2.42.943-4.694 2.655-6.405.777-.778 1.711-1.42 2.7-1.858.38-.166.822.005.989.384s-.004.822-.382.99c-.822.362-1.599.896-2.247 1.544-1.429 1.428-2.215 3.327-2.215 5.345 0 .848-.236 1.669-.684 2.376l-2.037 3.228h1.971c.414 0 .75.336.75.75v3.422c0 .395.322.716.717.716.09 0 .146-.014.178-.024l3.026-.921c.228-.068.474-.026.665.115s.303.365.303.603v3.16h7.301v-4.167c0-1.757.537-3.457 1.552-4.916.356-.498.649-1.044.875-1.629.149-.387.584-.58.969-.431.387.149.579.583.43.97-.271.704-.624 1.361-1.048 1.955-.834 1.198-1.278 2.602-1.278 4.051v4.917c0 .413-.336.749-.75.749z"/><path d="m17 10.003c-1.363 0-2.727-.438-4.168-1.312-.513-.311-.832-.884-.832-1.495v-2.446c0-.414.336-.75.75-.75s.75.336.75.75v2.446c0 .087.044.173.11.212 2.407 1.461 4.372 1.461 6.78 0 .066-.039.11-.125.11-.212v-2.446c0-.414.336-.75.75-.75s.75.336.75.75v2.446c0 .61-.319 1.184-.832 1.495-1.441.874-2.805 1.312-4.168 1.312z"/><path d="m17 7c-.103 0-.206-.021-.302-.063l-6.25-2.75c-.272-.121-.448-.389-.448-.687s.176-.566.448-.687l6.25-2.75c.192-.084.412-.084.604 0l6.25 2.75c.272.121.448.389.448.687s-.176.566-.448.687l-6.25 2.75c-.096.042-.199.063-.302.063zm-4.388-3.5 4.388 1.931 4.388-1.931-4.388-1.931z"/></svg>