<svg height="480pt" viewBox="0 -12 480 480" width="480pt" xmlns="http://www.w3.org/2000/svg"><path d="m56 232c-4.417969 0-8 3.582031-8 8v128c0 4.417969 3.582031 8 8 8s8-3.582031 8-8v-128c0-4.417969-3.582031-8-8-8zm0 0"/><path d="m115.519531 168c4.417969 0 8-3.582031 8-8 .003907-.875-.160156-1.746094-.480469-2.558594-.953124-3.085937-3.664062-5.292968-6.878906-5.601562-19.410156-1.816406-34.683594-17.359375-36.160156-36.800782.042969-.289062.042969-.585937 0-.878906v-.878906c-.039062-.425781-.039062-.855469 0-1.28125v-40h32.800781c4.417969 0 8-3.582031 8-8s-3.582031-8-8-8h-40.800781c-4.417969 0-8 3.582031-8 8v35.679688c-10.15625-9.082032-15.972656-22.054688-16-35.679688v-48h96c15.691406.007812 30.390625 7.683594 39.359375 20.558594 2.609375 3.367187 7.394531 4.097656 10.890625 1.667968 3.496094-2.429687 4.476562-7.167968 2.230469-10.785156-11.957031-17.179687-31.554688-27.425781-52.480469-27.441406h-96c-8.835938 0-16 7.164062-16 16v48c-.109375 23.167969 12.316406 44.589844 32.480469 56 1.691406 12.128906 7.3125 23.371094 16 32h-24.480469c-30.929688 0-56 25.070312-56 56v160c0 4.417969 3.582031 8 8 8s8-3.582031 8-8v-160c0-22.089844 17.910156-40 40-40zm0 0"/><path d="m112 222.078125-5.761719-22.078125h26.082031c4.417969 0 8-3.582031 8-8s-3.582031-8-8-8h-36.320312c-2.460938-.011719-4.792969 1.109375-6.320312 3.039062-1.515626 1.949219-2.046876 4.488282-1.441407 6.882813l8 32c1.0625 4.351563 5.449219 7.019531 9.800781 5.957031 4.351563-1.058594 7.019532-5.445312 5.960938-9.800781zm0 0"/><path d="m424 232c-4.417969 0-8 3.582031-8 8v128c0 4.417969 3.582031 8 8 8s8-3.582031 8-8v-128c0-4.417969-3.582031-8-8-8zm0 0"/><path d="m448 157.441406v-77.441406c0-44.183594-35.816406-80-80-80h-16c-23.585938.0429688-45.953125 10.496094-61.121094 28.558594-2.082031 2.15625-2.785156 5.292968-1.824218 8.128906.960937 2.835938 3.425781 4.898438 6.386718 5.34375 2.964844.445312 5.925782-.800781 7.679688-3.230469 12.136718-14.429687 30.023437-22.773437 48.878906-22.800781h16c35.347656 0 64 28.652344 64 64v72.558594c-1.8125 0-3.652344-.160156-5.519531-.480469h-27.199219c10.738281-10.566406 16.761719-25.011719 16.71875-40.078125v-48c0-4.417969-3.582031-8-8-8h-60.160156c-4.417969 0-8 3.582031-8 8s3.582031 8 8 8h52.160156v40c.09375 20.675781-15.582031 38.015625-36.160156 40-3.214844.308594-5.925782 2.515625-6.878906 5.601562-.320313.8125-.484376 1.683594-.480469 2.558594 0 4.417969 3.582031 8 8 8h21.917969l-30.398438 54.640625c-2.144531 3.863281-.746094 8.738281 3.121094 10.878907 1.195312.679687 2.542968 1.035156 3.917968 1.039062 2.886719-.003906 5.546876-1.5625 6.960938-4.078125l34.71875-62.640625h21.042969c3.957031.15625 7.867187.910156 11.597656 2.238281h.640625c15.734375 5.878907 26.121094 20.964844 26 37.761719v160c0 4.417969 3.582031 8 8 8s8-3.582031 8-8v-160c-.015625-21.617188-12.46875-41.296875-32-50.558594zm0 0"/><path d="m312 232h-26.800781c12.46875-10.0625 21.226562-24 24.878906-39.601562 20.847656-11.097657 33.886719-32.78125 33.921875-56.398438v-16c0-35.347656-28.652344-64-64-64h-128c-8.835938 0-16 7.164062-16 16v64c.035156 23.617188 13.074219 45.300781 33.921875 56.398438 3.652344 15.601562 12.410156 29.539062 24.878906 39.601562h-26.800781c-30.929688 0-56 25.070312-56 56v160c0 4.417969 3.582031 8 8 8s8-3.582031 8-8v-160c0-22.089844 17.910156-40 40-40h144c22.089844 0 40 17.910156 40 40v160c0 4.417969 3.582031 8 8 8s8-3.582031 8-8v-160c0-30.929688-25.070312-56-56-56zm-160-96v-64h128c26.507812 0 48 21.492188 48 48v16c-.027344 13.625-5.84375 26.597656-16 35.679688v-59.679688c0-4.417969-3.582031-8-8-8h-128c-4.417969 0-8 3.582031-8 8v59.679688c-10.15625-9.082032-15.972656-22.054688-16-35.679688zm32.960938 50.558594c.042968-.289063.042968-.585938 0-.878906-.5-2.804688-.820313-5.636719-.960938-8.480469v-57.199219h112v57.199219c-.117188 2.84375-.410156 5.675781-.878906 8.480469-.046875.292968-.046875.589843 0 .878906-4.96875 26.484375-28.09375 45.675781-55.042969 45.675781-26.945313 0-50.070313-19.191406-55.039063-45.675781zm0 0"/><path d="m265.921875 264c-4.285156-1.058594-8.617187 1.554688-9.683594 5.839844l-6.476562 26.160156h-19.523438l-6.238281-25.921875c-.59375-2.871094-2.710938-5.1875-5.515625-6.035156-2.808594-.851563-5.851563-.097657-7.941406 1.964843-2.085938 2.058594-2.875 5.09375-2.0625 7.914063l8 30.71875-8.480469 89.679687c-.21875 2.546876.792969 5.042969 2.71875 6.71875l24 20.960938c3.019531 2.652344 7.542969 2.652344 10.5625 0l24-20.960938c1.925781-1.675781 2.9375-4.171874 2.71875-6.71875l-8-89.679687 8-30.71875c.574219-2.128906.25-4.394531-.902344-6.273437-1.148437-1.875-3.023437-3.195313-5.175781-3.648438zm-25.921875 141.359375-16-13.359375 7.039062-80h17.28125l7.679688 80zm0 0"/><path d="m168 312c-4.417969 0-8 3.582031-8 8v128c0 4.417969 3.582031 8 8 8s8-3.582031 8-8v-128c0-4.417969-3.582031-8-8-8zm0 0"/><path d="m312 312c-4.417969 0-8 3.582031-8 8v128c0 4.417969 3.582031 8 8 8s8-3.582031 8-8v-128c0-4.417969-3.582031-8-8-8zm0 0"/></svg>